#!OML:ASF H:\BabyWalks\Project 1\Capture day 1\Session 1\baby.ASF
:FULLY-SPECIFIED
:DEGREES
930
root 42.6085 17.3566 0.81185 -384.042 78.6291 -391.127
lowerback 20.6082 1.07465 2.10471
upperback 7.12567 2.16894 -1.04558
thorax -3.66944 1.26959 -2.82544
lowerneck 4.13896 4.10525 7.40178
upperneck -13.9262 5.16188 -9.92522
head -4.34364 2.86158 -4.54295
rclavicle -7.95139e-016 1.03368e-014
rhumerus -42.3574 3.84749 -81.4715
rradius 46.007
rwrist 0.120368
rhand -5.76214 -15.6964
rfingers 7.12502
rthumb 20.061 -44.6807
lclavicle -7.95139e-016 1.03368e-014
lhumerus -29.2283 -5.74067 71.0495
lradius 56.7782
lwrist 10.3316
lhand 3.05597 14.9021
lfingers 7.12502
lthumb 28.514 42.7484
rfemur -3.5879 16.1721 22.936
rtibia 22.0019
rfoot -20.7997 12.3849
rtoes 5.92294
lfemur -29.5503 -1.30132 -8.43304
ltibia 40.2668
lfoot -19.0553 -7.35209
ltoes -6.88692
931
root 42.6375 17.3639 0.792957 -383.733 78.5855 -391.003
lowerback 20.6129 1.10245 2.12375
upperback 7.10688 2.20585 -1.07108
thorax -3.68787 1.28688 -2.87261
lowerneck 4.1232 4.11698 7.33674
upperneck -13.8999 5.16571 -9.98062
head -4.33246 2.86986 -4.54831
rclavicle 3.18055e-015 -1.90833e-014
rhumerus -42.3088 3.8672 -81.4486
rradius 45.9324
rwrist 0.159563
rhand -5.53667 -15.7548
rfingers 7.12502
rthumb 20.2777 -44.7163
lclavicle 3.18055e-015 -1.90833e-014
lhumerus -28.7561 -5.99669 70.7023
lradius 57.8455
lwrist 10.6103
lhand 3.01651 14.9316
lfingers 7.12502
lthumb 28.4763 42.7842
rfemur -3.5618 16.0549 22.7916
rtibia 21.6604
rfoot -20.6402 12.4757
rtoes 5.97335
lfemur -29.6263 -1.31079 -8.52178
ltibia 40.2375
lfoot -19.1074 -7.21583
ltoes -6.83769
932
root 42.6655 17.3707 0.773955 -383.349 78.5504 -390.807
lowerback 20.6079 1.13132 2.13458
upperback 7.08587 2.24193 -1.10027
thorax -3.70389 1.30363 -2.91853
lowerneck 4.08601 4.12659 7.27195
upperneck -13.8641 5.1703 -10.0007
head -4.31601 2.87584 -4.54174
rclavicle 1.47101e-014 -8.74653e-015
rhumerus -42.2482 3.86093 -81.4238
rradius 45.8676
rwrist 0.186236
rhand -5.43295 -15.8081
rfingers 7.12502
rthumb 20.3774 -44.759
lclavicle 1.47101e-014 -8.74653e-015
lhumerus -28.3469 -6.30846 70.3698
lradius 58.893
lwrist 10.7094
lhand 2.88579 14.854
lfingers 7.12502
lthumb 28.3514 42.7274
rfemur -3.54604 15.9457 22.6324
rtibia 21.3287
rfoot -20.4912 12.5659
rtoes 6.04087
lfemur -29.7078 -1.3279 -8.62831
ltibia 40.2021
lfoot -19.1551 -7.07116
ltoes -6.78165
933
root 42.6924 17.3773 0.755195 -382.891 78.5222 -390.537
lowerback 20.5998 1.16151 2.13219
upperback 7.05804 2.27642 -1.13285
thorax -3.72607 1.31912 -2.96027
lowerneck 4.04559 4.13578 7.21794
upperneck -13.8271 5.1779 -9.99808
head -4.29888 2.88125 -4.52982
rclavicle -1.98785e-015 -4.77083e-015
rhumerus -42.1829 3.8297 -81.3974
rradius 45.8154
rwrist 0.202445
rhand -5.43738 -15.8458
rfingers 7.12502
rthumb 20.3731 -44.7971
lclavicle -1.98785e-015 -4.77083e-015
lhumerus -28.0113 -6.65946 70.0474
lradius 59.9182
lwrist 10.6657
lhand 2.69237 14.688
lfingers 7.12502
lthumb 28.1666 42.592
rfemur -3.53843 15.8484 22.4616
rtibia 21.0099
rfoot -20.3633 12.6376
rtoes 6.07394
lfemur -29.7934 -1.34752 -8.75061
ltibia 40.1602
lfoot -19.1971 -6.92808
ltoes -6.72485
934
root 42.7183 17.3837 0.736935 -382.356 78.5003 -390.187
lowerback 20.5826 1.1925 2.11134
upperback 7.02996 2.30799 -1.16738
thorax -3.74469 1.33306 -2.99258
lowerneck 4.00226 4.1478 7.18499
upperneck -13.7932 5.19131 -9.99308
head -4.28117 2.8883 -4.52082
rclavicle 1.70955e-014 -2.38542e-014
rhumerus -42.1054 3.7777 -81.3682
rradius 45.7775
rwrist 0.213271
rhand -5.53395 -15.8692
rfingers 7.12502
rthumb 20.2803 -44.8304
lclavicle 1.70955e-014 -2.38542e-014
lhumerus -27.7395 -7.03007 69.7328
lradius 60.9111
lwrist 10.5334
lhand 2.45534 14.4599
lfingers 7.12502
lthumb 27.94 42.4011
rfemur -3.52717 15.7642 22.2798
rtibia 20.6878
rfoot -20.2389 12.6891
rtoes 6.0998
lfemur -29.8821 -1.36537 -8.88963
ltibia 40.125
lfoot -19.2403 -6.79323
ltoes -6.65909
935
root 42.7433 17.3898 0.719375 -381.761 78.4811 -389.771
lowerback 20.5639 1.22348 2.07066
upperback 7.00083 2.33558 -1.2014
thorax -3.76473 1.34482 -3.01211
lowerneck 3.96081 4.16556 7.17704
upperneck -13.7628 5.21374 -9.99625
head -4.26306 2.89911 -4.51892
rclavicle -3.57812e-015 5.56597e-015
rhumerus -42.0196 3.71033 -81.3361
rradius 45.759
rwrist 0.218904
rhand -5.70414 -15.8778
rfingers 7.12502
rthumb 20.1167 -44.8563
lclavicle -3.57812e-015 5.56597e-015
lhumerus -27.533 -7.40153 69.4244
lradius 61.8694
lwrist 10.3734
lhand 2.21674 14.2026
lfingers 7.12502
lthumb 27.7119 42.1807
rfemur -3.5004 15.6944 22.0932
rtibia 20.3502
rfoot -20.1145 12.7158
rtoes 6.11186
lfemur -29.9743 -1.3758 -9.04055
ltibia 40.1076
lfoot -19.292 -6.67233
ltoes -6.58772
936
root 42.7669 17.3921 0.702569 -381.157 78.4602 -389.333
lowerback 20.5404 1.25405 2.02103
upperback 6.97779 2.36138 -1.23152
thorax -3.77644 1.35597 -3.02159
lowerneck 3.92729 4.18691 7.187
upperneck -13.7493 5.24129 -10.0101
head -4.25004 2.9126 -4.52424
rclavicle -3.85642e-014 1.43125e-014
rhumerus -41.9187 3.6264 -81.298
rradius 45.7641
rwrist 0.214236
rhand -5.93281 -15.8785
rfingers 7.12502
rthumb 19.8969 -44.88
lclavicle -3.85642e-014 1.43125e-014
lhumerus -27.3743 -7.76583 69.1247
lradius 62.7859
lwrist 10.2469
lhand 2.00533 13.9558
lfingers 7.12502
lthumb 27.5097 41.9662
rfemur -3.42519 15.6098 21.9173
rtibia 19.9957
rfoot -20.0547 12.6801
rtoes 5.8154
lfemur -30.0761 -1.37214 -9.19122
ltibia 40.115
lfoot -19.346 -6.57533
ltoes -6.50054
937
root 42.7893 17.392 0.686771 -380.566 78.4365 -388.897
lowerback 20.5208 1.28242 1.96215
upperback 6.95667 2.38312 -1.25503
thorax -3.78909 1.36507 -3.01793
lowerneck 3.90546 4.21155 7.20632
upperneck -13.7495 5.27365 -10.0291
head -4.24226 2.92868 -4.53362
rclavicle -1.15295e-014 1.19271e-014
rhumerus -41.8124 3.53056 -81.2539
rradius 45.798
rwrist 0.20164
rhand -6.19315 -15.8757
rfingers 7.12502
rthumb 19.6467 -44.903
lclavicle -1.15295e-014 1.19271e-014
lhumerus -27.2698 -8.11439 68.8355
lradius 63.6571
lwrist 10.2001
lhand 1.83941 13.743
lfingers 7.12502
lthumb 27.351 41.7785
rfemur -3.3072 15.5225 21.7562
rtibia 19.6173
rfoot -20.0239 12.5973
rtoes 5.33542
lfemur -30.1833 -1.35166 -9.33751
ltibia 40.1494
lfoot -19.4072 -6.503
ltoes -6.40831
938
root 42.8108 17.3926 0.671827 -380.021 78.411 -388.492
lowerback 20.5026 1.30591 1.90255
upperback 6.9427 2.39936 -1.26968
thorax -3.79557 1.37178 -3.00298
lowerneck 3.89344 4.2394 7.22758
upperneck -13.7652 5.31011 -10.0522
head -4.24026 2.94734 -4.54552
rclavicle 4.33351e-014 -1.74931e-014
rhumerus -41.6943 3.42896 -81.2027
rradius 45.8578
rwrist 0.174943
rhand -6.4754 -15.8698
rfingers 7.12502
rthumb 19.3753 -44.9245
lclavicle 4.33351e-014 -1.74931e-014
lhumerus -27.208 -8.44249 68.5624
lradius 64.4737
lwrist 10.2496
lhand 1.72694 13.5759
lfingers 7.12502
lthumb 27.2434 41.6284
rfemur -3.16482 15.494 21.6052
rtibia 19.2185
rfoot -19.9363 12.5329
rtoes 5.22491
lfemur -30.2834 -1.31624 -9.4766
ltibia 40.2015
lfoot -19.4622 -6.45623
ltoes -6.31078
939
root 42.8314 17.3927 0.657599 -379.557 78.379 -388.152
lowerback 20.4957 1.32428 1.8508
upperback 6.93159 2.41144 -1.27449
thorax -3.8052 1.37651 -2.98144
lowerneck 3.88697 4.27132 7.25103
upperneck -13.7856 5.35191 -10.0794
head -4.23989 2.96892 -4.55956
rclavicle 2.06736e-014 -3.65764e-014
rhumerus -41.5735 3.3194 -81.1457
rradius 45.9479
rwrist 0.129397
rhand -6.76904 -15.8622
rfingers 7.12502
rthumb 19.0929 -44.9451
lclavicle 2.06736e-014 -3.65764e-014
lhumerus -27.1879 -8.755 68.3063
lradius 65.227
lwrist 10.3914
lhand 1.68499 13.4646
lfingers 7.12502
lthumb 27.2033 41.5233
rfemur -3.00508 15.5053 21.4748
rtibia 18.8266
rfoot -19.8294 12.4768
rtoes 5.31615
lfemur -30.3711 -1.26343 -9.59942
ltibia 40.2555
lfoot -19.496 -6.43521
ltoes -6.21224
940
root 42.8513 17.3938 0.644061 -379.179 78.3428 -387.883
lowerback 20.4957 1.33748 1.80988
upperback 6.92546 2.41993 -1.2694
thorax -3.81324 1.3797 -2.95481
lowerneck 3.88776 4.30338 7.27114
upperneck -13.813 5.39357 -10.108
head -4.24288 2.99088 -4.57389
rclavicle 5.28767e-014 -2.54444e-014
rhumerus -41.4457 3.20608 -81.0839
rradius 46.0626
rwrist 0.0550414
rhand -7.0738 -15.8521
rfingers 7.12502
rthumb 18.7998 -44.9636
lclavicle 5.28767e-014 -2.54444e-014
lhumerus -27.202 -9.05395 68.0714
lradius 65.9077
lwrist 10.5979
lhand 1.70724 13.4011
lfingers 7.12502
lthumb 27.2246 41.4565
rfemur -2.85397 15.5708 21.3627
rtibia 18.4687
rfoot -19.6866 12.4497
rtoes 5.75717
lfemur -30.4369 -1.19574 -9.70657
ltibia 40.292
lfoot -19.5039 -6.43704
ltoes -6.11581
941
root 42.8704 17.3966 0.63101 -378.892 78.3017 -387.696
lowerback 20.5056 1.34457 1.78293
upperback 6.92091 2.42399 -1.25509
thorax -3.82481 1.38075 -2.92564
lowerneck 3.89248 4.33712 7.28812
upperneck -13.8413 5.43727 -10.1375
head -4.2467 3.01414 -4.58822
rclavicle -1.47101e-014 2.14687e-014
rhumerus -41.3158 3.09381 -81.0217
rradius 46.2025
rwrist -0.0561823
rhand -7.38276 -15.8391
rfingers 7.12502
rthumb 18.5027 -44.9791
lclavicle -1.47101e-014 2.14687e-014
lhumerus -27.2472 -9.34248 67.8588
lradius 66.5017
lwrist 10.8261
lhand 1.78957 13.3643
lfingers 7.12502
lthumb 27.3033 41.4073
rfemur -2.72722 15.6919 21.269
rtibia 18.1516
rfoot -19.5013 12.4567
rtoes 6.55355
lfemur -30.4818 -1.1173 -9.79599
ltibia 40.3078
lfoot -19.4883 -6.45509
ltoes -6.02756
942
root 42.8889 17.4013 0.618209 -378.674 78.2594 -387.57
lowerback 20.5186 1.34678 1.77003
upperback 6.92172 2.42524 -1.2341
thorax -3.83208 1.38075 -2.89668
lowerneck 3.88837 4.36985 7.30525
upperneck -13.8634 5.47908 -10.1697
head -4.24717 3.03639 -4.60286
rclavicle 2.3059e-014 -1.27222e-014
rhumerus -41.1797 2.97877 -80.9613
rradius 46.3631
rwrist -0.213467
rhand -7.7116 -15.822
rfingers 7.12502
rthumb 18.1863 -44.9918
lclavicle 2.3059e-014 -1.27222e-014
lhumerus -27.3083 -9.6304 67.6714
lradius 66.9968
lwrist 11.0492
lhand 1.9211 13.3452
lfingers 7.12502
lthumb 27.4291 41.3683
rfemur -2.63632 15.8521 21.1873
rtibia 17.8869
rfoot -19.2865 12.4942
rtoes 7.61274
lfemur -30.5059 -1.03237 -9.87391
ltibia 40.2974
lfoot -19.4524 -6.48427
ltoes -5.94353
943
root 42.907 17.4071 0.605515 -378.505 78.2191 -387.487
lowerback 20.5306 1.34422 1.76826
upperback 6.92526 2.42291 -1.20733
thorax -3.83595 1.37917 -2.86692
lowerneck 3.88009 4.40318 7.32058
upperneck -13.8785 5.52099 -10.2066
head -4.24466 3.0589 -4.61828
rclavicle -3.97569e-014 3.18055e-015
rhumerus -41.0398 2.86545 -80.903
rradius 46.5409
rwrist -0.420228
rhand -8.06342 -15.8012
rfingers 7.12502
rthumb 17.8478 -45.0022
lclavicle -3.97569e-014 3.18055e-015
lhumerus -27.3869 -9.91817 67.5136
lradius 67.3919
lwrist 11.2435
lhand 2.09994 13.3384
lfingers 7.12502
lthumb 27.6002 41.3343
rfemur -2.58424 16.0208 21.1138
rtibia 17.6834
rfoot -19.0821 12.5429
rtoes 8.6962
lfemur -30.5151 -0.944946 -9.94494
ltibia 40.2603
lfoot -19.4044 -6.52207
ltoes -5.8622
944
root 42.9245 17.413 0.592789 -378.336 78.185 -387.402
lowerback 20.5383 1.33892 1.77171
upperback 6.93179 2.41827 -1.17881
thorax -3.83439 1.37667 -2.83746
lowerneck 3.86889 4.4339 7.33614
upperneck -13.8895 5.55875 -10.2485
head -4.24054 3.07955 -4.63497
rclavicle 3.49861e-014 -2.3059e-014
rhumerus -40.8986 2.75347 -80.8491
rradius 46.7354
rwrist -0.675269
rhand -8.42751 -15.7842
rfingers 7.12502
rthumb 17.4975 -45.0168
lclavicle 3.49861e-014 -2.3059e-014
lhumerus -27.4762 -10.213 67.3877
lradius 67.6834
lwrist 11.4075
lhand 2.30806 13.3377
lfingers 7.12502
lthumb 27.7992 41.3017
rfemur -2.55734 16.1717 21.0374
rtibia 17.5213
rfoot -18.9033 12.5914
rtoes 9.6225
lfemur -30.5177 -0.863335 -10.0197
ltibia 40.2095
lfoot -19.3566 -6.56042
ltoes -5.77303
